<svg id="Layer_1" data-name="Layer 1" xmlns="http://www.w3.org/2000/svg" xmlns:xlink="http://www.w3.org/1999/xlink" viewBox="0 0 73.35 128.02"><defs><style>.cls-1,.cls-3{fill:none;}.cls-2{clip-path:url(#clip-path);}.cls-3{stroke:#fff;stroke-linecap:round;stroke-linejoin:round;stroke-width:1.2px;}</style><clipPath id="clip-path"><rect class="cls-1" width="73.35" height="128.02"/></clipPath></defs><title>Artboard 1</title><g class="cls-2"><path class="cls-3" d="M32.85,127.42c-1.43-6.3-8-37.3-4.87-61,0,0,2-15,9.4-23.22A26,26,0,0,1,45,37.49c1.53-.68,7.31-3.16,13.8-1.19A20.37,20.37,0,0,1,72.74,54.73C73.06,64.31,66,73.38,60,73.84A6.8,6.8,0,0,1,55,72.29c-2.57-2.35-2.05-6.33-2-6.85"/><path class="cls-3" d="M27.91,30c.11-.55.51-1.47.57-1.81.54-3.11-.42-4.2-2.33-5-2.52-1.11-2.37-8.11-4-11.38-2.06-4.09-4.68-5.34-6.72-6.63C11.36,2.55,3.91-.25,1.1.84.05,1.25,2.89,12,5.7,14.43c-1-.29-5.28-.83-5.09.36,1.14,7.31,20,8.71,22,11.57,1,2.23,2.47,2.19,4,2.36.95.11,1.5.8,1.34,1.27C26.8,33.2,21,60.71,21.35,80.62c.39,24.83,3,43.44,4.24,46.8"/></g></svg>